<?xml version="1.0" encoding="utf-8"?>
<!-- Generator: Adobe Illustrator 27.0.1, SVG Export Plug-In . SVG Version: 6.00 Build 0)  -->
<svg version="1.1" id="Capa_1" xmlns="http://www.w3.org/2000/svg" xmlns:xlink="http://www.w3.org/1999/xlink" x="0px" y="0px"
	 viewBox="0 0 55.9 54.6" style="enable-background:new 0 0 55.9 54.6;" xml:space="preserve">
<style type="text/css">
	.st0{fill:#F27721;}
	.st1{fill:#FFFFFF;}
	.st2{fill:#2F55A5;}
	.st3{fill:#67C6BE;}
	.st4{fill:#F7B8CF;}
	.st5{fill:#EC2024;}
	.st6{fill:#FFF100;}
</style>
<g>
	<polygon class="st0" points="55.9,54.5 55.9,54.3 55.9,23.2 51.5,23.3 51.4,10.3 47.6,10.3 47.5,6.1 43.6,6.1 43.6,2.1 35.6,2 
		35.4,0 19.3,0 19.2,1.9 11.6,2 11.6,6 7.4,5.9 7.4,10 3.1,10 3,22.6 0,22.6 0.1,54.4 3.1,54.4 3.1,51.1 7.4,51.1 7.4,46.6 
		11.7,46.6 11.7,50.8 15.7,50.9 15.7,54.6 23.2,54.6 23.2,46.6 31.1,46.5 31,54.6 40.1,54.6 40.1,50.6 43.8,50.6 43.8,46.5 
		47.5,46.5 47.5,50.6 51.4,50.5 51.4,54.6 	"/>
	<g>
		<polygon class="st1" points="44,14.2 39.5,14.2 39.5,10.3 31.3,10.3 31.3,14.2 27.8,14.2 27.8,26.1 31.3,26.1 31.3,30.2 
			39.5,30.2 39.5,26.1 44,26.1 		"/>
	</g>
	<g>
		<polygon class="st1" points="19.9,14.5 15.4,14.5 15.4,10.6 7.1,10.6 7.1,14.5 3.6,14.5 3.6,26.2 7.1,26.2 7.1,30.3 15.4,30.3 
			15.4,26.2 19.9,26.2 		"/>
	</g>
	<rect x="27.8" y="18.7" class="st2" width="7.8" height="7.4"/>
	<rect x="3.6" y="18.9" class="st2" width="7.8" height="7.3"/>
</g>
</svg>
