<?xml version="1.0" encoding="utf-8"?>
<!-- Generator: Adobe Illustrator 27.0.1, SVG Export Plug-In . SVG Version: 6.00 Build 0)  -->
<svg version="1.1" id="Capa_1" xmlns="http://www.w3.org/2000/svg" xmlns:xlink="http://www.w3.org/1999/xlink" x="0px" y="0px"
	 viewBox="0 0 57.6 56.3" style="enable-background:new 0 0 57.6 56.3;" xml:space="preserve">
<style type="text/css">
	.st0{fill:#F27721;}
	.st1{fill:#FFFFFF;}
	.st2{fill:#2F55A5;}
	.st3{fill:#67C6BE;}
	.st4{fill:#F7B8CF;}
	.st5{fill:#EC2024;}
	.st6{fill:#FFF100;}
</style>
<g>
	<polygon class="st3" points="57.6,56.2 57.6,55.9 57.6,23.9 53.1,24 53,10.6 49.1,10.6 49,6.3 44.9,6.3 44.9,2.1 36.7,2 36.5,0 
		19.9,0 19.8,2 12,2 12,6.2 7.7,6.1 7.7,10.3 3.2,10.3 3.1,23.3 0,23.2 0.1,56.1 3.2,56.1 3.2,52.7 7.6,52.7 7.6,48 12,48 12,52.4 
		16.2,52.4 16.2,56.3 23.9,56.3 23.9,48 32,48 32,56.3 41.3,56.3 41.4,52.1 45.1,52.1 45.1,48 48.9,48 49,52.1 53,52 53,56.2 	"/>
	<g>
		<polygon class="st1" points="45.4,14.6 40.8,14.6 40.8,10.6 32.3,10.6 32.3,14.6 28.6,14.6 28.6,26.8 32.3,26.8 32.3,31.2 
			40.8,31.2 40.8,26.8 45.4,26.8 		"/>
	</g>
	<g>
		<polygon class="st1" points="20.5,14.9 15.8,14.9 15.8,10.9 7.4,10.9 7.4,14.9 3.7,14.9 3.7,27 7.4,27 7.4,31.3 15.8,31.3 
			15.8,27 20.5,27 		"/>
	</g>
	<rect x="37.3" y="19.2" class="st2" width="8" height="7.6"/>
	<rect x="12.3" y="19.5" class="st2" width="8" height="7.5"/>
</g>
</svg>
