<?xml version="1.0" encoding="utf-8"?>
<!-- Generator: Adobe Illustrator 27.0.1, SVG Export Plug-In . SVG Version: 6.00 Build 0)  -->
<svg version="1.1" id="Capa_1" xmlns="http://www.w3.org/2000/svg" xmlns:xlink="http://www.w3.org/1999/xlink" x="0px" y="0px"
	 viewBox="0 0 57.6 56.3" style="enable-background:new 0 0 57.6 56.3;" xml:space="preserve">
<style type="text/css">
	.st0{fill:#F27721;}
	.st1{fill:#FFFFFF;}
	.st2{fill:#2F55A5;}
	.st3{fill:#67C6BE;}
	.st4{fill:#F7B8CF;}
	.st5{fill:#EC2024;}
	.st6{fill:#FFF100;}
</style>
<g>
	<polygon class="st4" points="0.9,55.3 0.9,55.1 0.9,24 5.3,24.1 5.4,11.1 9.1,11.1 9.2,6.9 13.2,6.9 13.2,2.9 21.1,2.9 21.3,0.9 
		37.4,0.9 37.5,2.8 45.1,2.9 45.1,6.9 49.2,6.8 49.2,10.9 53.6,10.9 53.7,23.5 56.7,23.4 56.6,55.2 53.6,55.2 53.6,51.9 49.3,51.9 
		49.3,47.4 45,47.4 45,51.6 41,51.6 41,55.4 33.5,55.4 33.5,47.4 25.6,47.3 25.7,55.4 16.7,55.4 16.6,51.4 12.9,51.4 13,47.3 
		9.3,47.3 9.2,51.4 5.4,51.3 5.4,55.3 	"/>
	<g>
		<polygon class="st1" points="12.7,15 17.2,15 17.2,11.2 25.4,11.2 25.4,15 29,15 29,26.9 25.4,26.9 25.4,31.1 17.2,31.1 
			17.2,26.9 12.7,26.9 		"/>
	</g>
	<g>
		<polygon class="st1" points="36.9,15.3 41.3,15.3 41.3,11.5 49.6,11.5 49.6,15.3 53.1,15.3 53.1,27 49.6,27 49.6,31.2 41.3,31.2 
			41.3,27 36.9,27 		"/>
	</g>
	<rect x="21.2" y="19.5" class="st2" width="7.7" height="7.4"/>
	<rect x="45.4" y="19.7" class="st2" width="7.7" height="7.3"/>
</g>
</svg>
