<?xml version="1.0" encoding="utf-8"?>
<!-- Generator: Adobe Illustrator 27.0.1, SVG Export Plug-In . SVG Version: 6.00 Build 0)  -->
<svg version="1.1" id="Capa_1" xmlns="http://www.w3.org/2000/svg" xmlns:xlink="http://www.w3.org/1999/xlink" x="0px" y="0px"
	 viewBox="0 0 57.6 56.3" style="enable-background:new 0 0 57.6 56.3;" xml:space="preserve">
<style type="text/css">
	.st0{fill:#F27721;}
	.st1{fill:#FFFFFF;}
	.st2{fill:#2F55A5;}
	.st3{fill:#67C6BE;}
	.st4{fill:#F7B8CF;}
	.st5{fill:#EC2024;}
	.st6{fill:#FFF100;}
</style>
<g>
	<polygon class="st5" points="56.1,54.8 56.1,54.5 56.1,24.1 51.8,24.2 51.8,11.5 48,11.5 48,7.4 44.1,7.4 44.1,3.4 36.3,3.4 
		36.1,1.4 20.3,1.4 20.3,3.3 12.8,3.4 12.8,7.3 8.7,7.2 8.7,11.2 4.5,11.2 4.4,23.6 1.5,23.5 1.5,54.7 4.5,54.7 4.5,51.4 8.7,51.4 
		8.7,47 12.9,47 12.9,51.1 16.8,51.2 16.9,54.8 24.2,54.9 24.2,47 31.9,47 31.8,54.8 40.7,54.9 40.7,50.9 44.3,50.9 44.3,47 
		47.9,47 48,50.9 51.8,50.8 51.8,54.8 	"/>
	<g>
		<polygon class="st1" points="44.5,15.3 40.1,15.3 40.1,11.5 32.1,11.5 32.1,15.3 28.6,15.3 28.6,26.9 32.1,26.9 32.1,31 40.1,31 
			40.1,26.9 44.5,26.9 		"/>
	</g>
	<g>
		<polygon class="st1" points="20.9,15.6 16.5,15.6 16.5,11.8 8.4,11.8 8.4,15.6 4.9,15.6 4.9,27.1 8.4,27.1 8.4,31.1 16.5,31.1 
			16.5,27.1 20.9,27.1 		"/>
	</g>
	<rect x="32.4" y="23.8" class="st2" width="7.6" height="7.2"/>
	<rect x="8.7" y="24" class="st2" width="7.6" height="7.1"/>
</g>
</svg>
