<?xml version="1.0" encoding="utf-8"?>
<!-- Generator: Adobe Illustrator 27.0.1, SVG Export Plug-In . SVG Version: 6.00 Build 0)  -->
<svg version="1.1" xmlns="http://www.w3.org/2000/svg" xmlns:xlink="http://www.w3.org/1999/xlink" x="0px" y="0px"
	 viewBox="0 0 1000 1200" style="enable-background:new 0 0 1000 1200;" xml:space="preserve">
<style type="text/css">
	.st0{fill:#0000FF;}
	.st1{fill:#FFFF00;}
	.st2{fill:none;stroke:#000000;stroke-miterlimit:10;}
	.st3{display:none;}
	.st4{display:inline;fill:#0000FF;}
	.st5{display:inline;fill:#FFFF00;}
	.st6{display:inline;}
	.st7{fill:#EC2024;}
	.st8{fill:#FFFFFF;}
	.st9{fill:#2F55A5;}
	.st10{fill:#F7B8CF;}
	.st11{fill:#67C6BE;}
	.st12{fill:#F27721;}
	.st13{fill:none;}
	.st14{fill:#9E6026;}
	.st15{fill:#FFF100;}
	.st16{fill:#04E8E7;}
</style>
<g id="Black">
	<rect x="-1.3" width="1001.3" height="1200"/>
</g>
<g id="Walls">
	<g>
		<path class="st0" d="M948.7,546.7c0,0-156.1,0-164.7,0s-8.7-8-8.7-8s0.5-96,0.5-103.5c0-7.5,8.2-8.2,8.2-8.2s136,0,143.7,0
			c7.6,0,8-8.7,8-8.7s0.3-266.7,0.3-276.7S925.3,131,925.3,131s-397.8,0-405.2,0c-7.4,0-7.8,8.2-7.8,8.2s-0.4,106.1-0.4,112.7
			c0,6.6-7.2,7.2-7.2,7.2s-3.1,0-10,0s-7.1-7.1-7.1-7.1s0-106.5,0-112.8s-8.2-8.1-8.2-8.1H74.1c-9.7,0-9.8,8.3-9.8,8.3
			s0,268.2,0,277.7s9,10,9,10s134.8,0,142.7,0s8,7.7,8,7.7s0,96.3,0,104c0,7.7-7,8-7,8H51.7v-8c0,0,155.8,0,159.7,0s4.7-3.7,4.7-3.7
			s0-91.8,0-96s-4.7-4.3-4.7-4.3s-130.1,0-143,0c-12.9,0-13-11.7-13-11.7s0-276.1,0-288s13-12.3,13-12.3s850.4,0,863,0
			c12.6,0,13,12.3,13,12.3v288c0,11.5-13,11.7-13,11.7s-139-0.2-142.8-0.2S784,439,784,439s0,93,0,96s4.7,3.7,4.7,3.7h160V546.7z"/>
	</g>
	<path class="st0" d="M480.2,1099c-7.4,0-405.2,0-405.2,0s-10.7-0.7-10.7-10.7s0.3-341,0.3-341s0.4-8.7,8-8.7s143.7,0,143.7,0
		s8.2-0.6,8.2-8.2c0-7.5,0.5-103.5,0.5-103.5s-0.1-8-8.7-8s-164.7,0-164.7,0v8h160c0,0,4.7,0.7,4.7,3.7c0,3,0,96,0,96
		s-0.6,4.5-4.5,4.5S69,731,69,731s-13,0.2-13,11.7v352c0,0,0.4,12.3,13,12.3s863,0,863,0s13-0.5,13-12.3s0-352,0-352
		s-0.1-11.7-13-11.7s-143,0-143,0s-4.7-0.1-4.7-4.3s0-96,0-96s0.8-3.7,4.7-3.7s159.7,0,159.7,0v-8l-165.3,0c0,0-7,0.3-7,8
		c0,7.7,0,104,0,104s0.2,7.7,8,7.7c7.8,0,142.7,0,142.7,0s9,0.5,9,10s0,341.7,0,341.7s-0.1,8.3-9.8,8.3l-405.4,0.3"/>
	<path class="st0" d="M224,252.6c0,3.5-2.8,6.4-6.4,6.4H142c-3.5,0-6.4-2.8-6.4-6.4v-43.3c0-3.5,2.8-6.4,6.4-6.4h75.6
		c3.5,0,6.4,2.8,6.4,6.4V252.6z"/>
	<path class="st0" d="M224,345.3c0,5.3-4.3,9.7-9.7,9.7h-69c-5.3,0-9.7-4.3-9.7-9.7v-5c0-5.3,4.3-9.7,9.7-9.7h69
		c5.3,0,9.7,4.3,9.7,9.7V345.3z"/>
	<path class="st0" d="M863.1,345.3c0,5.3-4.3,9.7-9.7,9.7h-69c-5.3,0-9.7-4.3-9.7-9.7v-5c0-5.3,4.3-9.7,9.7-9.7h69
		c5.3,0,9.7,4.3,9.7,9.7V345.3z"/>
	<path class="st0" d="M703.9,535.7c0,6.2-5,11.3-11.3,11.3h-1.9c-6.2,0-11.3-5-11.3-11.3V462c0-6.2-5-11.3-11.3-11.3l-77.6,0
		c-3.9,0-7.1-3.2-7.1-7.1v-9.9c0-3.9,3.2-7.1,7.1-7.1l77.6,0c6.2,0,11.3-5,11.3-11.3v-73.4c0-6.2,5-11.3,11.3-11.3h1.9
		c6.2,0,11.3,5,11.3,11.3V535.7z"/>
	<path class="st0" d="M609,920.1c0,6.2-5,11.3-11.3,11.3l-73.7,0c-6.2,0-11.3,5-11.3,11.3l0,73.4c0,6.2-5,11.3-11.3,11.3H500
		c-6.2,0-11.3-5-11.3-11.3l0-73.4c0-6.2-5-11.3-11.3-11.3l-73.4,0c-6.2,0-11.3-5-11.3-11.3v-1.9c0-6.2,5-11.3,11.3-11.3l193.7,0
		c6.2,0,11.3,5,11.3,11.3V920.1z"/>
	<path class="st0" d="M320,728.5c0,5.6-4.5,10.1-10.1,10.1h-4.1c-5.6,0-10.1-4.5-10.1-10.1v-99.4c0-5.6,4.5-10.1,10.1-10.1h4.1
		c5.6,0,10.1,4.5,10.1,10.1V728.5z"/>
	<path class="st0" d="M703.5,728.5c0,5.6-4.5,10.1-10.1,10.1h-4.1c-5.6,0-10.1-4.5-10.1-10.1v-99.4c0-5.6,4.5-10.1,10.1-10.1h4.1
		c5.6,0,10.1,4.5,10.1,10.1V728.5z"/>
	<path class="st0" d="M702.5,825.2c0,5.6-4.5,10.1-10.1,10.1H593c-5.6,0-10.1-4.5-10.1-10.1v-4.1c0-5.6,4.5-10.1,10.1-10.1h99.4
		c5.6,0,10.1,4.5,10.1,10.1V825.2z"/>
	<path class="st0" d="M415.2,825.2c0,5.6-4.5,10.1-10.1,10.1h-99.4c-5.6,0-10.1-4.5-10.1-10.1v-4.1c0-5.6,4.5-10.1,10.1-10.1h99.4
		c5.6,0,10.1,4.5,10.1,10.1V825.2z"/>
	<path class="st0" d="M224,835.2v84.1c0,6.3-5.1,11.4-11.4,11.4h-1.2c-6.3,0-11.4-5.1-11.4-11.4v-70.6c0-7.5-6.1-13.5-13.5-13.5
		h-39.4c-6.3,0-11.4-5.1-11.4-11.4v-1.5c0-6.3,5.1-11.4,11.4-11.4h65.6c6.3,0,11.4,5.1,11.4,11.4V835.2z"/>
	<path class="st0" d="M864,823.9c0,6.3-5.1,11.4-11.4,11.4H813c-7.4,0-13.4,6-13.4,13.4v70.7c0,6.3-5.1,11.4-11.4,11.4H787
		c-6.3,0-11.4-5.1-11.4-11.4v-84.1v-12.9c0-6.3,5.1-11.4,11.4-11.4h65.6c6.3,0,11.4,5.1,11.4,11.4V823.9z"/>
	<path class="st0" d="M852.2,1026.7H595.5c-6.5,0-11.8-5.3-11.8-11.8c0-6.5,5.3-11.8,11.8-11.8h72.3c6.5,0,11.8-5.3,11.8-11.8v-71.8
		c0-6.5,5.3-11.8,11.8-11.8h0.7c6.5,0,11.8,5.3,11.8,11.8v71.8c0,6.5,5.3,11.8,11.8,11.8h136.3c6.5,0,11.8,5.3,11.8,11.8
		C864,1021.4,858.7,1026.7,852.2,1026.7z"/>
	<path class="st0" d="M404.8,1026.7H148.2c-6.5,0-11.8-5.3-11.8-11.8c0-6.5,5.3-11.8,11.8-11.8h136.3c6.5,0,11.8-5.3,11.8-11.8
		l0-71.8c0-6.5,5.3-11.8,11.8-11.8h0.7c6.5,0,11.8,5.3,11.8,11.8l0,71.8c0,6.5,5.3,11.8,11.8,11.8h72.3c6.5,0,11.8,5.3,11.8,11.8
		C416.7,1021.4,411.4,1026.7,404.8,1026.7z"/>
	<path class="st0" d="M416,251.4c0,4.2-3.4,7.6-7.6,7.6H303.3c-4.2,0-7.6-3.4-7.6-7.6v-40.8c0-4.2,3.4-7.6,7.6-7.6h105.1
		c4.2,0,7.6,3.4,7.6,7.6V251.4z"/>
	<path class="st0" d="M703.3,251.4c0,4.2-3.4,7.6-7.6,7.6H590.6c-4.2,0-7.6-3.4-7.6-7.6v-40.8c0-4.2,3.4-7.6,7.6-7.6h105.1
		c4.2,0,7.6,3.4,7.6,7.6V251.4z"/>
	<path class="st0" d="M864.2,252.6c0,3.5-2.8,6.4-6.4,6.4h-75.6c-3.5,0-6.4-2.8-6.4-6.4v-43.3c0-3.5,2.8-6.4,6.4-6.4h75.6
		c3.5,0,6.4,2.8,6.4,6.4V252.6z"/>
	<path class="st0" d="M295.8,342c0-6.2,5-11.3,11.3-11.3h1.9c6.2,0,11.3,5,11.3,11.3v73.7c0,6.2,5,11.3,11.3,11.3l77.6,0
		c3.9,0,7.1,3.2,7.1,7.1v9.9c0,3.9-3.2,7.1-7.1,7.1l-77.6,0c-6.2,0-11.3,5-11.3,11.3v73.4c0,6.2-5,11.3-11.3,11.3H307
		c-6.2,0-11.3-5-11.3-11.3V342z"/>
	<path class="st0" d="M597.7,330.7c6.2,0,11.3,5,11.3,11.3v1.9c0,6.2-5,11.3-11.3,11.3H524c-6.2,0-11.3,5-11.3,11.3l0,77.6
		c0,3.9-3.2,7.1-7.1,7.1h-9.9c-3.9,0-7.1-3.2-7.1-7.1l0-77.6c0-6.2-5-11.3-11.3-11.3h-73.4c-6.2,0-11.3-5-11.3-11.3v-1.9
		c0-6.2,5-11.3,11.3-11.3H597.7z"/>
	<path class="st0" d="M597.7,715c6.2,0,11.3,5,11.3,11.3v1.9c0,6.2-5,11.3-11.3,11.3H524c-6.2,0-11.3,5-11.3,11.3l0,77.6
		c0,3.9-3.2,7.1-7.1,7.1h-9.9c-3.9,0-7.1-3.2-7.1-7.1l0-77.6c0-6.2-5-11.3-11.3-11.3h-73.4c-6.2,0-11.3-5-11.3-11.3v-1.9
		c0-6.2,5-11.3,11.3-11.3H597.7z"/>
	<path class="st0" d="M531.9,523h-63.3H391v119.8h217V523H531.9z M599.7,635.2H400.3V530.8h68.2c0,0,62.3,0.3,63.3,0h67.8V635.2z"/>
	<path class="st0" d="M63.2,882.8l3.2,7.3l2.8,11.2l4.5,2.8l19.4,1.4l24.7-0.6c0,0,8.4,1.4,8.8,1.5c0.3,0.1,1.5,4.2,1.5,4.2l1,14.7
		l-4.3,7l-26.8,0.8l-22.1,0.3l-8.8,5.2l-0.8,7.5l-3,3.2l-4.7-42.5l4.3-23.8L63.2,882.8z"/>
	<polygon class="st0" points="939.4,950.3 934.7,945.1 928.6,934.3 914.2,932.1 888.5,932.9 872.6,930.8 868.7,922.7 868.7,912 
		874.3,907 882,905.1 925,905.6 932.4,898.2 935.2,882.7 939.4,879.3 942.6,902.2 	"/>
	<path class="st1" d="M68.3,119h863c0,0,17.3,0.1,17.3,16s0,288,0,288s-1.9,16-17.3,16s-142.7,0-142.7,0v96h160v3.7h-160
		c0,0-4.7-0.7-4.7-3.7s0-96,0-96s0.6-4.5,4.5-4.5s142.8,0.2,142.8,0.2s13-0.2,13-11.7V135c0,0-0.4-12.3-13-12.3c-12.6,0-863,0-863,0
		s-13,0.5-13,12.3s0,288,0,288s0.1,11.7,13,11.7s143,0,143,0s4.7,0.1,4.7,4.3s0,96,0,96s-0.8,3.7-4.7,3.7c-3.8,0-159.7,0-159.7,0
		V535h159.7v-96h-143c0,0-16.7,0.2-16.7-16s0-288,0-288S51.9,119,68.3,119z"/>
	<path class="st1" d="M74.1,131h405.4c0,0,8.2,1.9,8.2,8.1s0,112.8,0,112.8s0.2,7.1,7.1,7.1s10,0,10,0s7.2-0.6,7.2-7.2
		c0-6.6,0.4-112.7,0.4-112.7s0.5-8.2,7.8-8.2c7.4,0,405.2,0,405.2,0s10.7,0.7,10.7,10.7s-0.3,276.7-0.3,276.7s-0.4,8.7-8,8.7
		c-7.6,0-143.7,0-143.7,0s-8.2,0.6-8.2,8.2c0,7.5-0.5,103.5-0.5,103.5s0.1,8,8.7,8s164.7,0,164.7,0v4H780c0,0-8.7-0.7-8.7-12
		s0-104.5,0-104.5s-0.4-11.2,9-11.2s143.5,0,143.5,0s7.5-0.2,7.5-7.2s0-274.2,0-274.2s-0.9-6.7-7.8-6.7S525,135,525,135
		s-8.8,0.8-8.8,8.8c0,8,0.2,110.7,0.2,110.7s-0.5,8.5-12.3,8.5c-11.8,0-11.8,0-11.8,0s-9.7,0-9.7-9.7c0-9.6,0.8-110,0.8-110
		s-0.2-8.3-8-8.3c-7.8,0-399,0-399,0s-7.6,0.3-7.6,7.6s-0.4,274.8-0.4,274.8s0.5,5.7,7.7,5.7s143,0,143,0s9.3,0,9.3,8.8
		c0,8.8,0,110.3,0,110.3s-0.7,8.5-8.8,8.5s-167.8,0-167.8,0v-4H217c0,0,7-0.3,7-8c0-7.7,0-104,0-104s-0.2-7.7-8-7.7
		s-142.7,0-142.7,0s-9-0.5-9-10s0-277.7,0-277.7S64.4,131,74.1,131z"/>
	<path class="st1" d="M932,1110.7H69c0,0-17.3-0.1-17.3-16c0-15.9,0-352,0-352s1.9-16,17.3-16s142.7,0,142.7,0v-96h-160V627h160
		c0,0,4.7,0.7,4.7,3.7c0,3,0,96,0,96s-0.6,4.5-4.5,4.5S69,731,69,731s-13,0.2-13,11.7v352c0,0,0.4,12.3,13,12.3s863,0,863,0
		s13-0.5,13-12.3s0-352,0-352s-0.1-11.7-13-11.7s-143,0-143,0s-4.7-0.1-4.7-4.3s0-96,0-96s0.8-3.7,4.7-3.7s159.7,0,159.7,0v3.7H789
		v96h143c0,0,16.7-0.2,16.7,16s0,352,0,352S948.4,1110.7,932,1110.7z"/>
	<path class="st1" d="M217.6,199h-75.8c-5.9,0-10.7,4.8-10.7,10.7v42.5c0,5.9,4.8,10.7,10.7,10.7h75.8c5.9,0,10.7-4.8,10.7-10.7
		v-42.5C228.3,203.8,223.5,199,217.6,199z M224,252.6c0,3.5-2.8,6.4-6.4,6.4H142c-3.5,0-6.4-2.8-6.4-6.4v-43.3
		c0-3.5,2.8-6.4,6.4-6.4h75.6c3.5,0,6.4,2.8,6.4,6.4V252.6z"/>
	<path class="st1" d="M215.8,327h-72.3c-6.9,0-12.5,5.6-12.5,12.5v6.9c0,6.9,5.6,12.5,12.5,12.5h72.3c6.9,0,12.5-5.6,12.5-12.5v-6.9
		C228.3,332.6,222.7,327,215.8,327z M224,345.3c0,5.3-4.3,9.7-9.7,9.7h-69c-5.3,0-9.7-4.3-9.7-9.7v-5c0-5.3,4.3-9.7,9.7-9.7h69
		c5.3,0,9.7,4.3,9.7,9.7V345.3z"/>
	<path class="st1" d="M854.9,327h-72.3c-6.9,0-12.5,5.6-12.5,12.5v6.9c0,6.9,5.6,12.5,12.5,12.5h72.3c6.9,0,12.5-5.6,12.5-12.5v-6.9
		C867.5,332.6,861.9,327,854.9,327z M863.1,345.3c0,5.3-4.3,9.7-9.7,9.7h-69c-5.3,0-9.7-4.3-9.7-9.7v-5c0-5.3,4.3-9.7,9.7-9.7h69
		c5.3,0,9.7,4.3,9.7,9.7V345.3z"/>
	<path class="st1" d="M695,327h-6.3c-7.4,0-13.4,6-13.4,13.4v73.6c0,5.1-4.1,9.2-9.2,9.2l-77.1,0c-5.8,0-10.4,4.7-10.4,10.4v10.8
		c0,5.8,4.7,10.4,10.4,10.4l77.1,0c5.1,0,9.2,4.1,9.2,9.2v73.5c0,7.4,6,13.4,13.4,13.4h6.3c7.4,0,13.4-6,13.4-13.4v-197
		C708.3,333,702.3,327,695,327z M703.9,535.7c0,6.2-5,11.3-11.3,11.3h-1.9c-6.2,0-11.3-5-11.3-11.3V462c0-6.2-5-11.3-11.3-11.3
		l-77.6,0c-3.9,0-7.1-3.2-7.1-7.1v-9.9c0-3.9,3.2-7.1,7.1-7.1l77.6,0c6.2,0,11.3-5,11.3-11.3v-73.4c0-6.2,5-11.3,11.3-11.3h1.9
		c6.2,0,11.3,5,11.3,11.3V535.7z"/>
	<path class="st1" d="M599.4,902.6l-197,0c-7.4,0-13.4,6-13.4,13.4v6.3c0,7.4,6,13.4,13.4,13.4l72.5,0c5.7,0,10.2,4.6,10.2,10.2
		l0,73.1c0,7.4,6,13.4,13.4,13.4h4.9c7.4,0,13.4-6,13.4-13.4l0-73.1c0-5.7,4.6-10.2,10.2-10.2l72.4,0c7.4,0,13.4-6,13.4-13.4v-6.3
		C612.7,908.6,606.8,902.6,599.4,902.6z M609,920.1c0,6.2-5,11.3-11.3,11.3l-73.7,0c-6.2,0-11.3,5-11.3,11.3l0,73.4
		c0,6.2-5,11.3-11.3,11.3H500c-6.2,0-11.3-5-11.3-11.3l0-73.4c0-6.2-5-11.3-11.3-11.3l-73.4,0c-6.2,0-11.3-5-11.3-11.3v-1.9
		c0-6.2,5-11.3,11.3-11.3l193.7,0c6.2,0,11.3,5,11.3,11.3V920.1z"/>
	<path class="st1" d="M312.1,615h-8.6c-6.7,0-12.2,5.5-12.2,12.2v103.6c0,6.7,5.5,12.2,12.2,12.2h8.6c6.7,0,12.2-5.5,12.2-12.2
		V627.2C324.3,620.5,318.9,615,312.1,615z M320,728.5c0,5.6-4.5,10.1-10.1,10.1h-4.1c-5.6,0-10.1-4.5-10.1-10.1v-99.4
		c0-5.6,4.5-10.1,10.1-10.1h4.1c5.6,0,10.1,4.5,10.1,10.1V728.5z"/>
	<path class="st1" d="M695.7,615h-8.6c-6.7,0-12.2,5.5-12.2,12.2v103.6c0,6.7,5.5,12.2,12.2,12.2h8.6c6.7,0,12.2-5.5,12.2-12.2
		V627.2C707.9,620.5,702.4,615,695.7,615z M703.5,728.5c0,5.6-4.5,10.1-10.1,10.1h-4.1c-5.6,0-10.1-4.5-10.1-10.1v-99.4
		c0-5.6,4.5-10.1,10.1-10.1h4.1c5.6,0,10.1,4.5,10.1,10.1V728.5z"/>
	<path class="st1" d="M694.3,806.7H590.7c-6.7,0-12.2,5.5-12.2,12.2v8.6c0,6.7,5.5,12.2,12.2,12.2h103.6c6.7,0,12.2-5.5,12.2-12.2
		v-8.6C706.5,812.1,701.1,806.7,694.3,806.7z M702.5,825.2c0,5.6-4.5,10.1-10.1,10.1H593c-5.6,0-10.1-4.5-10.1-10.1v-4.1
		c0-5.6,4.5-10.1,10.1-10.1h99.4c5.6,0,10.1,4.5,10.1,10.1V825.2z"/>
	<path class="st1" d="M407,806.7H303.4c-6.7,0-12.2,5.5-12.2,12.2v8.6c0,6.7,5.5,12.2,12.2,12.2H407c6.7,0,12.2-5.5,12.2-12.2v-8.6
		C419.2,812.1,413.7,806.7,407,806.7z M415.2,825.2c0,5.6-4.5,10.1-10.1,10.1h-99.4c-5.6,0-10.1-4.5-10.1-10.1v-4.1
		c0-5.6,4.5-10.1,10.1-10.1h99.4c5.6,0,10.1,4.5,10.1,10.1V825.2z"/>
	<path class="st1" d="M213.6,806.7H195h-49.2c-8.2,0-14.8,6.6-14.8,14.8v2.8c0,8.2,6.6,14.8,14.8,14.8h38c6.2,0,11.2,5,11.2,11.2v70
		c0,8.2,6.6,14.8,14.8,14.8h3.8c8.2,0,14.8-6.6,14.8-14.8V839v-17.6C228.3,813.3,221.7,806.7,213.6,806.7z M224,835.2v84.1
		c0,6.3-5.1,11.4-11.4,11.4h-1.2c-6.3,0-11.4-5.1-11.4-11.4v-70.6c0-7.5-6.1-13.5-13.5-13.5h-39.4c-6.3,0-11.4-5.1-11.4-11.4v-1.5
		c0-6.3,5.1-11.4,11.4-11.4h65.6c6.3,0,11.4,5.1,11.4,11.4V835.2z"/>
	<path class="st1" d="M853.9,806.7h-49.2h-18.6c-8.2,0-14.8,6.6-14.8,14.8V839v81.2c0,8.2,6.6,14.8,14.8,14.8h3.8
		c8.2,0,14.8-6.6,14.8-14.8V850c0-6.1,4.9-11,11-11h38.3c8.2,0,14.8-6.6,14.8-14.8v-2.8C868.7,813.3,862.1,806.7,853.9,806.7z
		 M864,823.9c0,6.3-5.1,11.4-11.4,11.4H813c-7.4,0-13.4,6-13.4,13.4v70.7c0,6.3-5.1,11.4-11.4,11.4H787c-6.3,0-11.4-5.1-11.4-11.4
		v-84.1v-12.9c0-6.3,5.1-11.4,11.4-11.4h65.6c6.3,0,11.4,5.1,11.4,11.4V823.9z"/>
	<path class="st1" d="M854.4,998.7H719.7c-6.3,0-11.4-5.1-11.4-11.4V917c0-7.7-6.3-14-14-14H689c-7.7,0-14,6.3-14,14v70.3
		c0,6.3-5.1,11.4-11.4,11.4h-71c-7.7,0-14,6.3-14,14v4.4c0,7.7,6.3,14,14,14H675h33.3h146c7.7,0,14-6.3,14-14v-4.4
		C868.3,1004.9,862.1,998.7,854.4,998.7z M852.2,1026.7H595.5c-6.5,0-11.8-5.3-11.8-11.8c0-6.5,5.3-11.8,11.8-11.8h72.3
		c6.5,0,11.8-5.3,11.8-11.8v-71.8c0-6.5,5.3-11.8,11.8-11.8h0.7c6.5,0,11.8,5.3,11.8,11.8v71.8c0,6.5,5.3,11.8,11.8,11.8h136.3
		c6.5,0,11.8,5.3,11.8,11.8C864,1021.4,858.7,1026.7,852.2,1026.7z"/>
	<path class="st1" d="M407.7,998.7h-71c-6.3,0-11.3-5.1-11.3-11.3l0-70.4c0-7.7-6.3-14-14-14H306c-7.7,0-14,6.3-14,14l0,70.4
		c0,6.3-5.1,11.3-11.3,11.3H146c-7.7,0-14,6.3-14,14v4.4c0,7.7,6.3,14,14,14h146h33.3h82.4c7.7,0,14-6.3,14-14v-4.4
		C421.7,1004.9,415.4,998.7,407.7,998.7z M404.8,1026.7H148.2c-6.5,0-11.8-5.3-11.8-11.8c0-6.5,5.3-11.8,11.8-11.8h136.3
		c6.5,0,11.8-5.3,11.8-11.8l0-71.8c0-6.5,5.3-11.8,11.8-11.8h0.7c6.5,0,11.8,5.3,11.8,11.8l0,71.8c0,6.5,5.3,11.8,11.8,11.8h72.3
		c6.5,0,11.8,5.3,11.8,11.8C416.7,1021.4,411.4,1026.7,404.8,1026.7z"/>
	<path class="st1" d="M409.6,199h-107c-6.3,0-11.4,5.1-11.4,11.4v41.3c0,6.3,5.1,11.4,11.4,11.4h107c6.3,0,11.4-5.1,11.4-11.4v-41.3
		C421,204.1,415.9,199,409.6,199z M416,251.4c0,4.2-3.4,7.6-7.6,7.6H303.3c-4.2,0-7.6-3.4-7.6-7.6v-40.8c0-4.2,3.4-7.6,7.6-7.6
		h105.1c4.2,0,7.6,3.4,7.6,7.6V251.4z"/>
	<path class="st1" d="M697,199H590c-6.3,0-11.4,5.1-11.4,11.4v41.3c0,6.3,5.1,11.4,11.4,11.4h107c6.3,0,11.4-5.1,11.4-11.4v-41.3
		C708.3,204.1,703.2,199,697,199z M703.3,251.4c0,4.2-3.4,7.6-7.6,7.6H590.6c-4.2,0-7.6-3.4-7.6-7.6v-40.8c0-4.2,3.4-7.6,7.6-7.6
		h105.1c4.2,0,7.6,3.4,7.6,7.6V251.4z"/>
	<path class="st1" d="M857.8,199H782c-5.9,0-10.7,4.8-10.7,10.7v42.5c0,5.9,4.8,10.7,10.7,10.7h75.8c5.9,0,10.7-4.8,10.7-10.7v-42.5
		C868.5,203.8,863.7,199,857.8,199z M864.2,252.6c0,3.5-2.8,6.4-6.4,6.4h-75.6c-3.5,0-6.4-2.8-6.4-6.4v-43.3c0-3.5,2.8-6.4,6.4-6.4
		h75.6c3.5,0,6.4,2.8,6.4,6.4V252.6z"/>
	<polygon class="st1" points="531.9,519 531.9,523 608,523 608,642.8 391,642.8 391,523 468.6,523 468.6,519 387.2,519 387.2,647.2 
		612.2,647.2 612.2,519 	"/>
	<polygon class="st1" points="531.9,530.8 531.9,534.8 595.4,534.8 595.4,630.7 404.1,630.7 404.1,534.8 468.6,534.8 468.6,530.8 
		400.3,530.8 400.3,635.2 599.7,635.2 599.7,530.8 	"/>
	<path class="st1" d="M304.7,550.8h6.3c7.4,0,13.4-6,13.4-13.4v-73.6c0-5.1,4.1-9.2,9.2-9.2l77.1,0c5.8,0,10.4-4.7,10.4-10.4v-10.8
		c0-5.8-4.7-10.4-10.4-10.4l-77.1,0c-5.1,0-9.2-4.1-9.2-9.2v-73.5c0-7.4-6-13.4-13.4-13.4h-6.3c-7.4,0-13.4,6-13.4,13.4v197
		C291.3,544.8,297.3,550.8,304.7,550.8z M295.8,342c0-6.2,5-11.3,11.3-11.3h1.9c6.2,0,11.3,5,11.3,11.3v73.7c0,6.2,5,11.3,11.3,11.3
		l77.6,0c3.9,0,7.1,3.2,7.1,7.1v9.9c0,3.9-3.2,7.1-7.1,7.1l-77.6,0c-6.2,0-11.3,5-11.3,11.3v73.4c0,6.2-5,11.3-11.3,11.3H307
		c-6.2,0-11.3-5-11.3-11.3V342z"/>
	<path class="st1" d="M389,339.6v6.3c0,7.4,6,13.4,13.4,13.4h73.6c5.1,0,9.2,4.1,9.2,9.2l0,77.1c0,5.8,4.7,10.4,10.4,10.4h10.8
		c5.8,0,10.4-4.7,10.4-10.4l0-77.1c0-5.1,4.1-9.2,9.2-9.2h73.5c7.4,0,13.4-6,13.4-13.4v-6.3c0-7.4-6-13.4-13.4-13.4h-197
		C395,326.2,389,332.2,389,339.6z M597.7,330.7c6.2,0,11.3,5,11.3,11.3v1.9c0,6.2-5,11.3-11.3,11.3H524c-6.2,0-11.3,5-11.3,11.3
		l0,77.6c0,3.9-3.2,7.1-7.1,7.1h-9.9c-3.9,0-7.1-3.2-7.1-7.1l0-77.6c0-6.2-5-11.3-11.3-11.3h-73.4c-6.2,0-11.3-5-11.3-11.3v-1.9
		c0-6.2,5-11.3,11.3-11.3H597.7z"/>
	<path class="st1" d="M389,723.9v6.3c0,7.4,6,13.4,13.4,13.4h73.6c5.1,0,9.2,4.1,9.2,9.2l0,77.1c0,5.8,4.7,10.4,10.4,10.4h10.8
		c5.8,0,10.4-4.7,10.4-10.4l0-77.1c0-5.1,4.1-9.2,9.2-9.2h73.5c7.4,0,13.4-6,13.4-13.4v-6.3c0-7.4-6-13.4-13.4-13.4h-197
		C395,710.6,389,716.6,389,723.9z M597.7,715c6.2,0,11.3,5,11.3,11.3v1.9c0,6.2-5,11.3-11.3,11.3H524c-6.2,0-11.3,5-11.3,11.3
		l0,77.6c0,3.9-3.2,7.1-7.1,7.1h-9.9c-3.9,0-7.1-3.2-7.1-7.1l0-77.6c0-6.2-5-11.3-11.3-11.3h-73.4c-6.2,0-11.3-5-11.3-11.3v-1.9
		c0-6.2,5-11.3,11.3-11.3H597.7z"/>
	<path class="st1" d="M64.5,942.9c0-11,11.6-11.9,11.6-11.9s36,0,43.1,0s7.7-7.5,7.7-7.5s0-3.7,0-9.4c0-7.4-7.8-7.1-7.8-7.1
		s-30.7,0-42.8,0c-11.3,0-11.8-15.4-11.8-17.4l0-0.2v0c0.1-74.8,0.1-142,0.1-142s0.4-8.7,8-8.7c7.6,0,143.7,0,143.7,0
		s8.2-0.6,8.2-8.2c0-7.5,0.5-103.5,0.5-103.5s-0.1-8-8.7-8s-164.7,0-164.7,0v-4h168.7c0,0,8.7,0.7,8.7,12s0,104.5,0,104.5
		s0.4,11.2-9,11.2c-9.4,0-143.5,0-143.5,0s-7.5,0.2-7.5,7.2c0,3,0,67.7,0,139.7c0,0,1.4,13.5,7.5,13.5c6,0,43.4,0,43.4,0
		s12.2-0.6,12.2,9.9s0,10.6,0,10.6s-0.8,11.5-12.7,11.5c-12,0-44,0-44,0s-6.3,2.1-6.3,10.4c0,75,0,142.9,0,142.9s0.9,6.7,7.8,6.7
		s398.5,0,398.5,0H525c7.8,0,399-0.3,399-0.3s7.6-0.3,7.6-7.6c0-3.2,0.1-70.3,0.2-144c-2.2-7.8-10.8-7.2-10.8-7.2s-34.5,0-43.6,0
		c-10.9,0-10.7-10.7-10.7-10.7s0,0,0-10.5s11.5-11.5,11.5-11.5s29.8,0,41.7,0c11.9,0,11.9-11.8,11.9-11.9
		c0.1-75,0.2-142.9,0.2-142.9s-0.5-5.7-7.7-5.7c-7.2,0-143,0-143,0s-9.3,0-9.3-8.8s0-110.3,0-110.3s0.7-8.5,8.8-8.5
		c8.2,0,167.8,0,167.8,0v4l-165.3,0c0,0-7,0.3-7,8c0,7.7,0,104,0,104s0.2,7.7,8,7.7c7.8,0,142.7,0,142.7,0s9,0.5,9,10
		c0,4.1,0,68.7,0,140.6c0,0-0.7,17.7-11.7,17.7s-43.5,0-43.5,0s-10.4,1.1-10.4,8.3c0,3.2,0,8.9,0,8.9s0.4,6.5,9.6,6.5s44.5,0,44.5,0
		s11.5,1,11.5,13c0,76.6,0,146.6,0,146.6s-0.1,8.3-9.8,8.3l-405.4,0.3h-40.7c-7.4,0-405.2,0-405.2,0s-10.7-0.7-10.7-10.7L64.5,942.9
		z"/>
</g>
<g id="Capa_4" class="st3">
	<circle class="st4" cx="100.1" cy="870.9" r="17.2"/>
	<circle class="st4" cx="899.1" cy="870.9" r="17.2"/>
	<circle class="st4" cx="899.1" cy="231" r="17.2"/>
	<circle class="st4" cx="100.1" cy="231" r="17.2"/>
</g>
<g id="Icons__x26__Pacman" class="st3">
	<circle class="st5" cx="99.9" cy="167.4" r="4.8"/>
	<circle class="st5" cx="131.9" cy="167.4" r="4.8"/>
	<circle class="st5" cx="163.9" cy="167.4" r="4.8"/>
	<circle class="st5" cx="195.8" cy="167.4" r="4.8"/>
	<circle class="st5" cx="227.8" cy="167.4" r="4.8"/>
	<circle class="st5" cx="259.8" cy="167.4" r="4.8"/>
	<circle class="st5" cx="291.8" cy="167.4" r="4.8"/>
	<circle class="st5" cx="323.8" cy="167.4" r="4.8"/>
	<circle class="st5" cx="355.7" cy="167.4" r="4.8"/>
	<circle class="st5" cx="387.7" cy="167.4" r="4.8"/>
	<circle class="st5" cx="419.7" cy="167.4" r="4.8"/>
	<circle class="st5" cx="451.7" cy="167.4" r="4.8"/>
	<circle class="st5" cx="99.9" cy="295.1" r="4.8"/>
	<circle class="st5" cx="131.9" cy="295.1" r="4.8"/>
	<circle class="st5" cx="164" cy="295.1" r="4.8"/>
	<circle class="st5" cx="196" cy="295.1" r="4.8"/>
	<circle class="st5" cx="228" cy="295.1" r="4.8"/>
	<circle class="st5" cx="131.9" cy="390.8" r="4.8"/>
	<circle class="st5" cx="164" cy="390.8" r="4.8"/>
	<circle class="st5" cx="196" cy="390.8" r="4.8"/>
	<circle class="st5" cx="228" cy="390.8" r="4.8"/>
	<circle class="st5" cx="260" cy="295.1" r="4.8"/>
	<circle class="st5" cx="99.9" cy="326.2" r="4.8"/>
	<circle class="st5" cx="260" cy="326.2" r="4.8"/>
	<circle class="st5" cx="99.9" cy="359" r="4.8"/>
	<circle class="st5" cx="260" cy="359" r="4.8"/>
	<circle class="st5" cx="99.9" cy="390.8" r="4.8"/>
	<circle class="st5" cx="260" cy="390.8" r="4.8"/>
	<circle class="st5" cx="292.1" cy="295.1" r="4.8"/>
	<circle class="st5" cx="324.1" cy="295.1" r="4.8"/>
	<circle class="st5" cx="356.1" cy="295.1" r="4.8"/>
	<circle class="st5" cx="388.1" cy="295.1" r="4.8"/>
	<circle class="st5" cx="420.2" cy="295.1" r="4.8"/>
	<circle class="st5" cx="452.2" cy="295.1" r="4.8"/>
	<circle class="st5" cx="484.2" cy="295.1" r="4.8"/>
	<circle class="st5" cx="516.3" cy="295.1" r="4.8"/>
	<circle class="st5" cx="548.3" cy="295.1" r="4.8"/>
	<circle class="st5" cx="580.3" cy="295.1" r="4.8"/>
	<circle class="st5" cx="612.3" cy="295.1" r="4.8"/>
	<circle class="st5" cx="388.1" cy="390.8" r="4.8"/>
	<circle class="st5" cx="420.2" cy="390.8" r="4.8"/>
	<circle class="st5" cx="452.2" cy="390.8" r="4.8"/>
	<circle class="st5" cx="548.3" cy="390.8" r="4.8"/>
	<circle class="st5" cx="580.3" cy="390.8" r="4.8"/>
	<circle class="st5" cx="612.3" cy="390.8" r="4.8"/>
	<circle class="st5" cx="644.4" cy="295.1" r="4.8"/>
	<circle class="st5" cx="356.1" cy="327" r="4.8"/>
	<circle class="st5" cx="644.4" cy="327" r="4.8"/>
	<circle class="st5" cx="356.1" cy="359" r="4.8"/>
	<circle class="st5" cx="644.4" cy="359" r="4.8"/>
	<circle class="st5" cx="740.4" cy="327" r="4.8"/>
	<circle class="st5" cx="740.4" cy="359" r="4.8"/>
	<circle class="st5" cx="900.6" cy="327" r="4.8"/>
	<circle class="st5" cx="900.6" cy="359" r="4.8"/>
	<circle class="st5" cx="356.1" cy="390.8" r="4.8"/>
	<circle class="st5" cx="644.4" cy="390.8" r="4.8"/>
	<circle class="st5" cx="676.4" cy="295.1" r="4.8"/>
	<circle class="st5" cx="708.4" cy="295.1" r="4.8"/>
	<circle class="st5" cx="676.4" cy="775.4" r="4.8"/>
	<circle class="st5" cx="708.4" cy="775.4" r="4.8"/>
	<circle class="st5" cx="740.4" cy="295.1" r="4.8"/>
	<circle class="st5" cx="772.5" cy="295.1" r="4.8"/>
	<circle class="st5" cx="804.5" cy="295.1" r="4.8"/>
	<circle class="st5" cx="836.5" cy="295.1" r="4.8"/>
	<circle class="st5" cx="868.5" cy="295.1" r="4.8"/>
	<circle class="st5" cx="900.6" cy="295.1" r="4.8"/>
	<circle class="st5" cx="740.4" cy="390.8" r="4.8"/>
	<circle class="st5" cx="772.5" cy="390.8" r="4.8"/>
	<circle class="st5" cx="804.5" cy="390.8" r="4.8"/>
	<circle class="st5" cx="836.5" cy="390.8" r="4.8"/>
	<circle class="st5" cx="868.5" cy="390.8" r="4.8"/>
	<circle class="st5" cx="900.6" cy="390.8" r="4.8"/>
	<circle class="st5" cx="548.3" cy="167.4" r="4.8"/>
	<circle class="st5" cx="580.3" cy="167.4" r="4.8"/>
	<circle class="st5" cx="612.3" cy="167.4" r="4.8"/>
	<circle class="st5" cx="644.4" cy="167.4" r="4.8"/>
	<circle class="st5" cx="676.4" cy="167.4" r="4.8"/>
	<circle class="st5" cx="708.4" cy="167.4" r="4.8"/>
	<circle class="st5" cx="740.4" cy="167.4" r="4.8"/>
	<circle class="st5" cx="772.5" cy="167.4" r="4.8"/>
	<circle class="st5" cx="804.5" cy="167.4" r="4.8"/>
	<circle class="st5" cx="836.5" cy="167.4" r="4.8"/>
	<circle class="st5" cx="868.5" cy="167.4" r="4.8"/>
	<circle class="st5" cx="900.6" cy="167.4" r="4.8"/>
	<circle class="st5" cx="548.3" cy="263" r="4.8"/>
	<circle class="st5" cx="740.4" cy="263" r="4.8"/>
	<circle class="st5" cx="900.6" cy="263" r="4.8"/>
	<circle class="st5" cx="548.3" cy="231" r="4.8"/>
	<circle class="st5" cx="740.4" cy="231" r="4.8"/>
	<circle class="st5" cx="548.3" cy="199" r="4.8"/>
	<circle class="st5" cx="740.4" cy="199" r="4.8"/>
	<circle class="st5" cx="740.4" cy="582.9" r="4.8"/>
	<circle class="st5" cx="740.4" cy="614.9" r="4.8"/>
	<circle class="st5" cx="740.4" cy="551" r="4.8"/>
	<circle class="st5" cx="740.4" cy="646.7" r="4.8"/>
	<circle class="st5" cx="740.4" cy="423.3" r="4.8"/>
	<circle class="st5" cx="740.4" cy="518.9" r="4.8"/>
	<circle class="st5" cx="740.4" cy="486.9" r="4.8"/>
	<circle class="st5" cx="740.4" cy="454.9" r="4.8"/>
	<circle class="st5" cx="740.4" cy="838.4" r="4.8"/>
	<circle class="st5" cx="740.4" cy="870.4" r="4.8"/>
	<circle class="st5" cx="707.9" cy="870.4" r="4.8"/>
	<circle class="st5" cx="740.4" cy="806.5" r="4.8"/>
	<circle class="st5" cx="740.4" cy="902.2" r="4.8"/>
	<circle class="st5" cx="740.4" cy="935.6" r="4.8"/>
	<circle class="st5" cx="740.4" cy="967.4" r="4.8"/>
	<circle class="st5" cx="740.4" cy="678.8" r="4.8"/>
	<circle class="st5" cx="740.4" cy="774.4" r="4.8"/>
	<circle class="st5" cx="772.6" cy="775.4" r="4.8"/>
	<circle class="st5" cx="804.6" cy="775.4" r="4.8"/>
	<circle class="st5" cx="836.7" cy="774.4" r="4.8"/>
	<circle class="st5" cx="868.8" cy="774.4" r="4.8"/>
	<circle class="st5" cx="900.8" cy="773.4" r="4.8"/>
	<circle class="st5" cx="164" cy="775.4" r="4.8"/>
	<circle class="st5" cx="196" cy="775.4" r="4.8"/>
	<circle class="st5" cx="99.8" cy="775.4" r="4.8"/>
	<circle class="st5" cx="900.8" cy="806" r="4.8"/>
	<circle class="st5" cx="99.8" cy="807" r="4.8"/>
	<circle class="st5" cx="900.8" cy="839.2" r="4.8"/>
	<circle class="st5" cx="99.8" cy="840.2" r="4.8"/>
	<circle class="st5" cx="131.8" cy="775.4" r="4.8"/>
	<circle class="st5" cx="836.7" cy="870.4" r="4.8"/>
	<circle class="st5" cx="868.8" cy="870.4" r="4.8"/>
	<circle class="st5" cx="164" cy="871.4" r="4.8"/>
	<circle class="st5" cx="164" cy="903" r="4.8"/>
	<circle class="st5" cx="164" cy="935" r="4.8"/>
	<circle class="st5" cx="131.8" cy="871.4" r="4.8"/>
	<circle class="st5" cx="228" cy="774.4" r="4.8"/>
	<circle class="st5" cx="772.6" cy="968" r="4.8"/>
	<circle class="st5" cx="804.6" cy="968" r="4.8"/>
	<circle class="st5" cx="546.6" cy="967.4" r="4.8"/>
	<circle class="st5" cx="578.7" cy="968" r="4.8"/>
	<circle class="st5" cx="610.8" cy="968" r="4.8"/>
	<circle class="st5" cx="388.9" cy="967.4" r="4.8"/>
	<circle class="st5" cx="421.1" cy="968" r="4.8"/>
	<circle class="st5" cx="453.1" cy="968" r="4.8"/>
	<circle class="st5" cx="484.3" cy="1063.5" r="4.8"/>
	<circle class="st5" cx="516.3" cy="1063.5" r="4.8"/>
	<circle class="st5" cx="836.7" cy="967" r="4.8"/>
	<circle class="st5" cx="836.7" cy="935" r="4.8"/>
	<circle class="st5" cx="836.7" cy="902.2" r="4.8"/>
	<circle class="st5" cx="868.8" cy="967" r="4.8"/>
	<circle class="st5" cx="900.8" cy="966" r="4.8"/>
	<circle class="st5" cx="900.8" cy="999.3" r="4.8"/>
	<circle class="st5" cx="900.8" cy="1031.5" r="4.8"/>
	<circle class="st5" cx="164" cy="968" r="4.8"/>
	<circle class="st5" cx="260" cy="903" r="4.8"/>
	<circle class="st5" cx="260" cy="935" r="4.8"/>
	<circle class="st5" cx="260" cy="968" r="4.8"/>
	<circle class="st5" cx="356.2" cy="903" r="4.8"/>
	<circle class="st5" cx="356.2" cy="935" r="4.8"/>
	<circle class="st5" cx="356.2" cy="968" r="4.8"/>
	<circle class="st5" cx="643.8" cy="903" r="4.8"/>
	<circle class="st5" cx="643.8" cy="935" r="4.8"/>
	<circle class="st5" cx="643.8" cy="968" r="4.8"/>
	<circle class="st5" cx="546.6" cy="998.5" r="4.8"/>
	<circle class="st5" cx="546.6" cy="1030.5" r="4.8"/>
	<circle class="st5" cx="548.4" cy="1063.5" r="4.8"/>
	<circle class="st5" cx="453.1" cy="998.5" r="4.8"/>
	<circle class="st5" cx="453.1" cy="1030.5" r="4.8"/>
	<circle class="st5" cx="452.3" cy="1063.5" r="4.8"/>
	<circle class="st5" cx="356.1" cy="1063.5" r="4.8"/>
	<circle class="st5" cx="388.2" cy="1063.5" r="4.8"/>
	<circle class="st5" cx="420.2" cy="1063.5" r="4.8"/>
	<circle class="st5" cx="324.1" cy="1063.5" r="4.8"/>
	<circle class="st5" cx="228" cy="1063.5" r="4.8"/>
	<circle class="st5" cx="260" cy="1063.5" r="4.8"/>
	<circle class="st5" cx="292.1" cy="1063.5" r="4.8"/>
	<circle class="st5" cx="772.7" cy="1063.5" r="4.8"/>
	<circle class="st5" cx="804.7" cy="1063.5" r="4.8"/>
	<circle class="st5" cx="836.8" cy="1063.5" r="4.8"/>
	<circle class="st5" cx="868.8" cy="1063.5" r="4.8"/>
	<circle class="st5" cx="900.8" cy="1063.5" r="4.8"/>
	<circle class="st5" cx="740.6" cy="1063.5" r="4.8"/>
	<circle class="st5" cx="644.5" cy="1063.5" r="4.8"/>
	<circle class="st5" cx="676.6" cy="1063.5" r="4.8"/>
	<circle class="st5" cx="708.6" cy="1063.5" r="4.8"/>
	<circle class="st5" cx="612.5" cy="1063.5" r="4.8"/>
	<circle class="st5" cx="580.4" cy="1063.5" r="4.8"/>
	<circle class="st5" cx="195.9" cy="1063.5" r="4.8"/>
	<circle class="st5" cx="99.8" cy="1063.5" r="4.8"/>
	<circle class="st5" cx="99.8" cy="1031" r="4.8"/>
	<circle class="st5" cx="99.8" cy="999" r="4.8"/>
	<circle class="st5" cx="131.9" cy="1063.5" r="4.8"/>
	<circle class="st5" cx="163.9" cy="1063.5" r="4.8"/>
	<circle class="st5" cx="196" cy="968" r="4.8"/>
	<circle class="st5" cx="99.8" cy="968" r="4.8"/>
	<circle class="st5" cx="131.8" cy="968" r="4.8"/>
	<circle class="st5" cx="228" cy="967" r="4.8"/>
	<circle class="st5" cx="740.4" cy="742.4" r="4.8"/>
	<circle class="st5" cx="259.8" cy="742.4" r="4.8"/>
	<circle class="st5" cx="740.4" cy="710.4" r="4.8"/>
	<circle class="st5" cx="900.6" cy="199" r="4.8"/>
	<circle class="st5" cx="99.9" cy="199" r="4.8"/>
	<circle class="st5" cx="259.8" cy="199" r="4.8"/>
	<circle class="st5" cx="451.7" cy="199" r="4.8"/>
	<circle class="st5" cx="259.8" cy="231" r="4.8"/>
	<circle class="st5" cx="451.7" cy="231" r="4.8"/>
	<circle class="st5" cx="99.9" cy="263" r="4.8"/>
	<circle class="st5" cx="259.8" cy="263" r="4.8"/>
	<circle class="st5" cx="259.8" cy="423.3" r="4.8"/>
	<circle class="st5" cx="260" cy="551" r="4.8"/>
	<circle class="st5" cx="260" cy="582.1" r="4.8"/>
	<circle class="st5" cx="260" cy="614.9" r="4.8"/>
	<circle class="st5" cx="260" cy="646.7" r="4.8"/>
	<circle class="st5" cx="259.8" cy="454.9" r="4.8"/>
	<circle class="st5" cx="259.8" cy="486.9" r="4.8"/>
	<circle class="st5" cx="259.8" cy="518.9" r="4.8"/>
	<circle class="st5" cx="451.7" cy="263" r="4.8"/>
	<g class="st6">
		<polygon class="st7" points="289.1,726.2 289.1,725.9 289.1,695.5 284.8,695.6 284.7,682.9 281,682.9 280.9,678.8 277.1,678.8 
			277.1,674.8 269.3,674.8 269.1,672.8 253.3,672.8 253.3,674.7 245.8,674.8 245.8,678.7 241.7,678.6 241.7,682.6 237.5,682.6 
			237.4,695 234.4,694.9 234.5,726.1 237.5,726.1 237.5,722.8 241.6,722.8 241.6,718.4 245.8,718.4 245.8,722.5 249.8,722.6 
			249.8,726.2 257.2,726.3 257.2,718.4 264.9,718.4 264.8,726.2 273.7,726.3 273.7,722.3 277.3,722.3 277.3,718.4 280.9,718.4 
			280.9,722.3 284.7,722.2 284.7,726.2 		"/>
		<g>
			<polygon class="st8" points="277.5,686.7 273.1,686.7 273.1,682.9 265.1,682.9 265.1,686.7 261.6,686.7 261.6,698.3 265.1,698.3 
				265.1,702.4 273.1,702.4 273.1,698.3 277.5,698.3 			"/>
		</g>
		<g>
			<polygon class="st8" points="253.9,687 249.5,687 249.5,683.2 241.4,683.2 241.4,687 237.9,687 237.9,698.5 241.4,698.5 
				241.4,702.5 249.5,702.5 249.5,698.5 253.9,698.5 			"/>
		</g>
		<rect x="265.4" y="695.2" class="st9" width="7.6" height="7.2"/>
		<rect x="241.7" y="695.4" class="st9" width="7.6" height="7.1"/>
	</g>
	<g class="st6">
		<polygon class="st10" points="482.2,706.1 482.2,705.9 482.2,674.9 486.6,675 486.6,662 490.4,662 490.5,657.8 494.5,657.8 
			494.5,653.8 502.4,653.7 502.6,651.7 518.7,651.7 518.8,653.6 526.3,653.7 526.3,657.7 530.5,657.6 530.5,661.7 534.9,661.7 
			534.9,674.3 538,674.2 537.9,706.1 534.9,706.1 534.8,702.8 530.6,702.8 530.6,698.3 526.3,698.2 526.3,702.4 522.3,702.5 
			522.2,706.2 514.8,706.3 514.8,698.2 506.9,698.2 507,706.2 497.9,706.3 497.9,702.2 494.2,702.2 494.3,698.2 490.5,698.2 
			490.5,702.2 486.6,702.1 486.6,706.2 		"/>
		<g>
			<polygon class="st8" points="494,665.9 498.5,665.9 498.5,662 506.7,662 506.7,665.9 510.2,665.9 510.2,677.7 506.7,677.7 
				506.7,681.9 498.5,681.9 498.5,677.7 494,677.7 			"/>
		</g>
		<g>
			<polygon class="st8" points="518.1,666.2 522.6,666.2 522.6,662.3 530.8,662.3 530.8,666.2 534.4,666.2 534.4,677.9 530.8,677.9 
				530.8,682 522.6,682 522.6,677.9 518.1,677.9 			"/>
		</g>
		<rect x="502.5" y="670.4" class="st9" width="7.7" height="7.4"/>
		<rect x="526.7" y="670.6" class="st9" width="7.7" height="7.3"/>
	</g>
	<g class="st6">
		<polygon class="st11" points="464.8,611.6 464.8,611.4 464.8,579.4 460.3,579.4 460.2,566 456.3,566 456.2,561.7 452.2,561.7 
			452.2,557.6 443.9,557.5 443.8,555.5 427.1,555.5 427.1,557.4 419.2,557.5 419.2,561.6 414.9,561.5 414.9,565.8 410.4,565.8 
			410.4,578.8 407.2,578.7 407.3,611.5 410.4,611.5 410.5,608.1 414.8,608.1 414.8,603.5 419.3,603.5 419.3,607.8 423.4,607.9 
			423.5,611.7 431.2,611.8 431.2,603.5 439.3,603.4 439.2,611.7 448.6,611.8 448.6,607.6 452.4,607.6 452.4,603.4 456.2,603.4 
			456.2,607.6 460.2,607.5 460.2,611.7 		"/>
		<g>
			<polygon class="st8" points="452.6,570.1 448,570.1 448,566.1 439.5,566.1 439.5,570.1 435.9,570.1 435.9,582.3 439.5,582.3 
				439.5,586.6 448,586.6 448,582.3 452.6,582.3 			"/>
		</g>
		<g>
			<polygon class="st8" points="427.7,570.4 423.1,570.4 423.1,566.4 414.6,566.4 414.6,570.4 410.9,570.4 410.9,582.5 414.6,582.5 
				414.6,586.7 423.1,586.7 423.1,582.5 427.7,582.5 			"/>
		</g>
		<rect x="444.5" y="574.7" class="st9" width="8" height="7.6"/>
		<rect x="419.6" y="574.9" class="st9" width="8" height="7.5"/>
	</g>
	<g class="st6">
		<polygon class="st12" points="615.5,514.2 615.5,514 615.5,482.9 611.1,483 611,469.9 607.2,469.9 607.1,465.8 603.2,465.8 
			603.2,461.7 595.2,461.7 595.1,459.7 578.9,459.7 578.8,461.6 571.2,461.7 571.2,465.7 567.1,465.6 567.1,469.7 562.7,469.7 
			562.6,482.3 559.6,482.3 559.7,514.1 562.7,514.1 562.7,510.8 567,510.8 567,506.3 571.3,506.3 571.3,510.5 575.3,510.6 
			575.4,514.3 582.9,514.3 582.9,506.3 590.7,506.2 590.7,514.3 599.7,514.3 599.8,510.3 603.4,510.3 603.4,506.2 607.1,506.2 
			607.1,510.3 611,510.2 611,514.2 		"/>
		<g>
			<polygon class="st8" points="603.7,473.9 599.2,473.9 599.2,470 590.9,470 590.9,473.9 587.4,473.9 587.4,485.7 590.9,485.7 
				590.9,489.9 599.2,489.9 599.2,485.7 603.7,485.7 			"/>
		</g>
		<g>
			<polygon class="st8" points="579.5,474.2 575,474.2 575,470.3 566.7,470.3 566.7,474.2 563.2,474.2 563.2,485.9 566.7,485.9 
				566.7,490 575,490 575,485.9 579.5,485.9 			"/>
		</g>
		<rect x="587.4" y="478.4" class="st9" width="7.8" height="7.4"/>
		<rect x="563.2" y="478.6" class="st9" width="7.8" height="7.3"/>
	</g>
	<g class="st6">
		<g>
			<g>
				<g>
					<polygon class="st7" points="854.7,689.6 854.7,686.9 853.4,686.9 853.4,685.2 851.6,685.2 851.6,684.1 834.9,684.1 
						834.9,685.2 833.2,685.2 833.2,686.9 831.3,686.9 831.3,689.6 828.7,689.6 828.7,706.4 831.3,706.4 831.3,709.2 833.2,709.2 
						833.2,711.1 834.9,711.1 834.9,712.3 851.6,712.3 851.6,711.1 853.4,711.1 853.4,709.2 854.7,709.2 854.7,706.4 857.5,706.4 
						857.5,689.6 					"/>
				</g>
				<g>
					<polygon class="st13" points="854.7,689.6 854.7,686.9 853.4,686.9 853.4,685.2 851.6,685.2 851.6,684.1 834.9,684.1 
						834.9,685.2 833.2,685.2 833.2,686.9 831.3,686.9 831.3,689.6 828.7,689.6 828.7,706.4 831.3,706.4 831.3,709.2 833.2,709.2 
						833.2,711.1 834.9,711.1 834.9,712.3 851.6,712.3 851.6,711.1 853.4,711.1 853.4,709.2 854.7,709.2 854.7,706.4 857.5,706.4 
						857.5,689.6 					"/>
				</g>
			</g>
			<g>
				<rect x="831.6" y="698.2" class="st8" width="4.8" height="4.8"/>
				<rect x="836.3" y="703.2" class="st8" width="5.3" height="5.3"/>
			</g>
		</g>
		<g>
			<g>
				<g>
					<polygon class="st7" points="870.6,698.5 870.6,695.9 869.2,695.9 869.2,694.1 867.5,694.1 867.5,693 850.8,693 850.8,694.1 
						849.1,694.1 849.1,695.9 847.1,695.9 847.1,698.5 844.6,698.5 844.6,715.3 847.1,715.3 847.1,718.2 849.1,718.2 849.1,720.1 
						850.8,720.1 850.8,721.2 867.5,721.2 867.5,720.1 869.2,720.1 869.2,718.2 870.6,718.2 870.6,715.3 873.4,715.3 873.4,698.5 
											"/>
				</g>
				<g>
					<polygon class="st13" points="870.6,698.5 870.6,695.9 869.2,695.9 869.2,694.1 867.5,694.1 867.5,693 850.8,693 850.8,694.1 
						849.1,694.1 849.1,695.9 847.1,695.9 847.1,698.5 844.6,698.5 844.6,715.3 847.1,715.3 847.1,718.2 849.1,718.2 849.1,720.1 
						850.8,720.1 850.8,721.2 867.5,721.2 867.5,720.1 869.2,720.1 869.2,718.2 870.6,718.2 870.6,715.3 873.4,715.3 873.4,698.5 
											"/>
				</g>
			</g>
			<g>
				<rect x="847.5" y="707.1" class="st8" width="4.8" height="4.8"/>
				<rect x="852.1" y="712.1" class="st8" width="5.3" height="5.3"/>
			</g>
		</g>
		<polygon class="st14" points="855.6,690.4 855.6,685.3 860.1,685.2 860.1,680.1 865.2,680.1 865.3,671.3 861.5,671.3 861.5,676.4 
			851.3,676.3 851.3,681.2 846.2,681.2 846.2,685.3 841.3,685.3 841.3,680.1 845.3,680.1 845.4,675.2 850.1,675.2 850.2,670.1 
			860.3,669.9 860.4,664.9 870.3,664.9 870.3,659.7 881.5,659.9 881.5,671.3 871.7,671.3 871.6,681.8 866.4,681.7 866.5,686.6 
			861.6,686.6 861.6,690.2 861.7,694.9 855.6,694.9 		"/>
	</g>
	<g class="st6">
		<polygon class="st15" points="638.1,858 642.9,858 642.9,851 646.5,851 646.5,846.6 654.8,846.6 654.8,843.1 674.2,843.1 
			674.2,846.6 682.1,846.6 682.1,851 686.5,851 686.5,858 678.9,858.1 679,861.9 666,861.7 666,865.7 657.8,865.8 657.7,871.4 
			666,871.5 666,875.5 678.8,875.6 678.8,879.6 686.6,879.7 686.5,885.8 682.1,885.8 682.1,891.5 674.2,891.5 674.2,895 654.8,895 
			654.8,891.5 646.5,891.5 646.5,885.8 642.9,885.8 642.9,879.2 638.1,879.2 		"/>
	</g>
	<g class="st6">
		<polygon class="st15" points="136.5,670.1 132.4,670.1 132.4,676.2 129.3,676.2 129.3,679.9 122.2,679.9 122.2,682.9 105.6,682.9 
			105.6,679.9 98.9,679.9 98.9,676.2 95.1,676.2 95.1,670.1 101.6,670.1 101.6,666.9 112.6,667 112.7,663.6 119.7,663.6 
			119.8,658.7 112.7,658.7 112.7,655.2 101.7,655.1 101.7,651.7 95.1,651.7 95.1,646.4 98.9,646.4 98.9,641.5 105.6,641.5 
			105.6,638.5 122.2,638.5 122.2,641.5 129.3,641.5 129.3,646.4 132.4,646.4 132.4,652.1 136.5,652.1 		"/>
	</g>
	<g class="st6">
		<path class="st16" d="M191.8,92.1h-3.2c0.5-4.2,2.6-6.3,6.3-6.3h6.3c1.7,0,3.2,0.6,4.4,1.9c1.2,1.2,1.8,2.7,1.8,4.4v1.5
			c0,2.2-2,5-6,8.5l-0.4,0.3c-4,3.5-6,6.2-6,8.2v0.3h12.5v3.1h-18.8v-3.1c0-2.2,2-5,6.1-8.5l0.4-0.3c4-3.5,6-6.3,6-8.5v-1.5
			c0-0.9-0.3-1.6-0.9-2.2c-0.6-0.6-1.4-0.9-2.2-0.9h-3.1C193,89,191.9,90,191.8,92.1z"/>
		<path class="st16" d="M213.7,85.8h18.8V89l-9.4,6.3h3.2c1.8,0,3.3,0.7,4.5,2.1c1.2,1.4,1.8,2.8,1.8,4.2v6.2c0,1.7-0.6,3.2-1.8,4.4
			c-1.2,1.2-2.7,1.8-4.4,1.8H220c-3.7,0-5.8-2.1-6.3-6.3h3.2c0.1,2.1,1.2,3.2,3.1,3.2h3.1c0.9,0,1.6-0.3,2.2-0.9
			c0.6-0.6,0.9-1.4,0.9-2.2v-6.2c0-0.5-0.3-1.2-0.8-2c-0.5-0.8-1.3-1.2-2.4-1.2h-6.2v-3.1l9.4-6.3h-12.6V85.8z"/>
		<path class="st16" d="M245,85.8h6.3c1.7,0,3.2,0.6,4.4,1.9c1.2,1.2,1.8,2.7,1.8,4.4v15.6c0,1.7-0.6,3.2-1.8,4.4
			c-1.2,1.2-2.7,1.9-4.4,1.9H245c-1.7,0-3.2-0.6-4.4-1.8c-1.2-1.2-1.9-2.7-1.9-4.4V92.1c0-1.7,0.6-3.2,1.9-4.4
			C241.9,86.5,243.3,85.8,245,85.8z M251.3,91.6c-0.5-1.7-1.5-2.6-3.1-2.6c-0.9,0-1.6,0.3-2.2,0.9c-0.6,0.6-0.9,1.4-0.9,2.2v10.6
			L251.3,91.6z M245.1,108.3c0.2,0.9,0.5,1.5,1,2c0.5,0.5,1.2,0.7,2,0.7c0.9,0,1.6-0.3,2.2-0.9c0.6-0.6,0.9-1.4,0.9-2.2V97.1
			L245.1,108.3z"/>
		<path class="st16" d="M310.8,114V85.8h6.3v12.5h6.3V85.8h6.2V114h-6.2v-12.5h-6.3V114H310.8z"/>
		<path class="st16" d="M339,114V85.8h6.2V114H339z"/>
		<path class="st16" d="M364,98.4h9.4v9.4c0,2.1-0.7,3.7-2,4.7c-1.3,1-2.7,1.6-4.2,1.6h-6.3c-1.7,0-3.2-0.6-4.4-1.8
			c-1.2-1.2-1.9-2.7-1.9-4.4V92.1c0-1.7,0.6-3.2,1.8-4.4c1.2-1.2,2.7-1.9,4.5-1.9h6.3c3.9,0,6,2.1,6.2,6.3h-3.1
			c-0.3-2.1-1.3-3.2-3.1-3.2H364c-0.9,0-1.6,0.3-2.2,0.9c-0.6,0.6-0.9,1.4-0.9,2.2v15.6c0,0.9,0.3,1.6,0.9,2.2
			c0.6,0.6,1.3,0.9,2.2,0.9c2-0.1,3.1-1.2,3.2-3.2v-6.2H364V98.4z"/>
		<path class="st16" d="M379.7,114V85.8h6.3v12.5h6.3V85.8h6.2V114h-6.2v-12.5H386V114H379.7z"/>
		<path class="st16" d="M548.8,92.1h-3.2c0.5-4.2,2.6-6.3,6.3-6.3h6.3c1.7,0,3.2,0.6,4.4,1.9c1.2,1.2,1.8,2.7,1.8,4.4v1.5
			c0,2.2-2,5-6,8.5l-0.4,0.3c-4,3.5-6,6.2-6,8.2v0.3h12.5v3.1h-18.8v-3.1c0-2.2,2-5,6.1-8.5l0.4-0.3c4-3.5,6-6.3,6-8.5v-1.5
			c0-0.9-0.3-1.6-0.9-2.2c-0.6-0.6-1.4-0.9-2.2-0.9h-3.1C550,89,548.9,90,548.8,92.1z"/>
		<path class="st16" d="M570.7,85.8h18.8V89l-9.4,6.3h3.2c1.8,0,3.3,0.7,4.5,2.1c1.2,1.4,1.8,2.8,1.8,4.2v6.2c0,1.7-0.6,3.2-1.8,4.4
			c-1.2,1.2-2.7,1.8-4.4,1.8h-6.3c-3.7,0-5.8-2.1-6.3-6.3h3.2c0.2,2.1,1.2,3.2,3.1,3.2h3.1c0.9,0,1.6-0.3,2.2-0.9
			c0.6-0.6,0.9-1.4,0.9-2.2v-6.2c0-0.5-0.3-1.2-0.8-2c-0.5-0.8-1.3-1.2-2.4-1.2h-6.2v-3.1l9.4-6.3h-12.5V85.8z"/>
		<path class="st16" d="M602,85.8h6.3c1.7,0,3.2,0.6,4.4,1.9c1.2,1.2,1.8,2.7,1.8,4.4v15.6c0,1.7-0.6,3.2-1.8,4.4
			c-1.2,1.2-2.7,1.9-4.4,1.9H602c-1.7,0-3.2-0.6-4.4-1.8c-1.2-1.2-1.9-2.7-1.9-4.4V92.1c0-1.7,0.6-3.2,1.9-4.4
			C598.8,86.5,600.3,85.8,602,85.8z M608.2,91.6c-0.5-1.7-1.5-2.6-3.1-2.6c-0.9,0-1.6,0.3-2.2,0.9c-0.6,0.6-0.9,1.4-0.9,2.2v10.6
			L608.2,91.6z M602.1,108.3c0.2,0.9,0.5,1.5,1,2c0.5,0.5,1.2,0.7,2,0.7c0.9,0,1.6-0.3,2.2-0.9c0.6-0.6,0.9-1.4,0.9-2.2V97.1
			L602.1,108.3z"/>
	</g>
	<g class="st6">
		<path class="st1" d="M160.8,673h-3.2c0.5-4.2,2.6-6.3,6.3-6.3h6.3c1.7,0,3.2,0.6,4.4,1.9c1.2,1.2,1.8,2.7,1.8,4.4v1.5
			c0,2.2-2,5-6,8.5l-0.4,0.3c-4,3.5-6,6.2-6,8.2v0.3h12.5v3.1h-18.8v-3.1c0-2.2,2-5,6.1-8.5l0.4-0.3c4-3.5,6-6.3,6-8.5V673
			c0-0.9-0.3-1.6-0.9-2.2c-0.6-0.6-1.4-0.9-2.2-0.9h-3.1C161.9,669.9,160.9,670.9,160.8,673z"/>
	</g>
	<g class="st6">
		<path class="st1" d="M932.5,721.2v-21.9h-3.1v-3.2l6.2-3.1h3.2v28.2H932.5z"/>
	</g>
</g>
</svg>
