<?xml version="1.0" encoding="utf-8"?>
<!-- Generator: Adobe Illustrator 27.0.1, SVG Export Plug-In . SVG Version: 6.00 Build 0)  -->
<svg version="1.1" id="Capa_1" xmlns="http://www.w3.org/2000/svg" xmlns:xlink="http://www.w3.org/1999/xlink" x="0px" y="0px"
	 viewBox="0 0 57.6 56.3" style="enable-background:new 0 0 57.6 56.3;" xml:space="preserve">
<style type="text/css">
	.st0{fill:#F27721;}
	.st1{fill:#FFFFFF;}
	.st2{fill:#2F55A5;}
	.st3{fill:#67C6BE;}
	.st4{fill:#F7B8CF;}
	.st5{fill:#EC2024;}
	.st6{fill:#FFF100;}
</style>
<g>
	<polygon class="st6" points="2.3,16.1 7.6,16.1 7.6,8.4 11.4,8.4 11.4,3.6 20.6,3.6 20.6,-0.3 41.8,-0.3 41.8,3.6 50.4,3.6 
		50.4,8.4 55.3,8.4 55.3,16.1 47,16.1 47,20.3 32.8,20.1 32.7,24.5 23.8,24.5 23.7,30.7 32.7,30.8 32.7,35.2 46.8,35.3 46.8,39.7 
		55.3,39.8 55.3,46.5 50.4,46.5 50.4,52.7 41.8,52.7 41.8,56.6 20.6,56.6 20.6,52.7 11.4,52.7 11.4,46.5 7.6,46.5 7.6,39.2 
		2.3,39.2 	"/>
</g>
</svg>
